<!DOCTYPE svg PUBLIC "-//W3C//DTD SVG 1.1//EN" "http://www.w3.org/Graphics/SVG/1.1/DTD/svg11.dtd">
<!-- Uploaded to: SVG Repo, www.svgrepo.com, Transformed by: SVG Repo Mixer Tools -->
<svg height="800px" width="800px" version="1.1" id="Layer_1" xmlns="http://www.w3.org/2000/svg" xmlns:xlink="http://www.w3.org/1999/xlink" viewBox="0 0 512.001 512.001" xml:space="preserve" fill="#000000">

<g id="SVGRepo_bgCarrier" stroke-width="0"/>

<g id="SVGRepo_tracerCarrier" stroke-linecap="round" stroke-linejoin="round"/>

<g id="SVGRepo_iconCarrier"> <path style="fill:#3e3d94;" d="M418.483,148.718c-13.749-51.161-46.631-94.11-92.701-121.044 C279.346,0.528,225.301-6.957,173.604,6.593C121.906,20.147,78.486,53.183,51.34,99.62C24.193,146.055,16.708,200.1,30.259,251.797 l0.256,0.979l57.181,147.6V512h227.673V424.43h115.173v-93.495l57.793-14.448L418.483,148.718z"/> <path style="fill:#5076ff;" d="M418.483,148.718c-13.749-51.161-46.631-94.11-92.701-121.044 C295.061,9.716,261.011,0.371,226.513,0.02v511.981h88.856v-87.569h115.173v-93.495l57.793-14.448L418.483,148.718z"/> <g> <polygon style="fill:#f8e45c;" points="291.166,267.461 265.91,242.205 296.143,211.971 265.91,181.739 291.166,156.483 346.656,211.971 "/> <polygon style="fill:#f8e45c;" points="161.138,267.461 105.648,211.971 161.138,156.483 186.394,181.739 156.161,211.971 186.394,242.205 "/> <polygon style="fill:#f8e45c;" points="224.946,131.011 190.857,292.932 227.357,292.932 261.446,131.011 "/> </g> </g>

</svg>
